<svg aria-hidden="true" style="position: absolute; width: 0; height: 0; overflow: hidden;" version="1.1" xmlns="http://www.w3.org/2000/svg" xmlns:xlink="http://www.w3.org/1999/xlink">
<defs>
<symbol id="icon-google-camera" viewBox="0 0 32 32">
<path fill="#34a853" style="fill: var(--color1, #34a853)" d="M26.678 24c0 1.473-1.194 2.667-2.667 2.667s-2.667-1.194-2.667-2.667c0-1.473 1.194-2.667 2.667-2.667s2.667 1.194 2.667 2.667z"></path>
<path fill="#4285f4" style="fill: var(--color2, #4285f4)" d="M20.012 17.333c0 2.209-1.791 4-4 4s-4-1.791-4-4c0-2.209 1.791-4 4-4s4 1.791 4 4z"></path>
<path fill="#ea4335" style="fill: var(--color3, #ea4335)" d="M4 22.533c0 3.018 2.448 5.467 5.467 5.467h6.533v-2.667l-6.683-0.017c-1.467 0-2.65-1.365-2.65-2.983v-3h-2.667v3.2z"></path>
<path fill="#fbbc05" style="fill: var(--color4, #fbbc05)" d="M28 12.133c0-3.018-2.448-5.467-5.467-5.467h-3.2l3.333 2.667c1.467 0 2.667 1.382 2.667 3v5h2.667v-5.2z"></path>
<path fill="#4285f4" style="fill: var(--color2, #4285f4)" d="M18.667 4h-5.333l-2 2.667h-1.867c-3.018 0-5.467 2.448-5.467 5.467v3.2h2.667v-3c0-1.618 1.2-3 2.667-3h13.333l-4-5.333z"></path>
</symbol>
<symbol id="icon-google" viewBox="0 0 97 32">
<path fill="#2c84fa" style="fill: var(--color5, #2c84fa)" d="M0 11.512c0.348-0.452 0.257-1.012 0.353-1.52 1.68-8.92 12.797-13.065 19.883-7.405 0.974 0.778 0.976 0.78 0.123 1.629-0.488 0.486-0.911 1.222-1.491 1.379-0.612 0.165-1.089-0.668-1.663-1.011-5.37-3.21-12.438 0.205-13.276 6.431-0.956 7.111 5.767 12.381 12.357 9.673 2.429-0.998 3.884-2.809 4.368-5.401 0.097-0.52 0.016-0.744-0.601-0.734-2.246 0.037-4.492-0.005-6.738 0.028-0.585 0.008-0.801-0.153-0.745-0.747 0.075-0.798-0.323-1.839 0.152-2.339 0.482-0.506 1.529-0.15 2.327-0.156 2.755-0.020 5.51 0.013 8.265-0.023 0.612-0.008 0.84 0.182 0.894 0.771 0.676 7.468-4.264 11.926-9.859 12.59-7.154 0.85-13.631-4.425-14.177-11.266-0.010-0.126-0.047-0.23-0.174-0.281z"></path>
<path fill="#2c84fa" style="fill: var(--color5, #2c84fa)" d="M63.726 16.423c0.006 1.805 0.443 3.006 1.446 3.975 2.030 1.961 5.185 1.502 6.566-0.956 1.207-2.146 0.758-5.058-1.050-6.549-1.3-1.072-2.781-1.219-4.283-0.533-1.895 0.866-2.637 2.487-2.679 4.063zM66.854 32c-0.177-0.322-0.529-0.238-0.793-0.304-2.157-0.541-3.726-1.82-4.854-3.708-0.327-0.548-0.401-0.923 0.349-1.084 0.086-0.019 0.164-0.072 0.247-0.106 0.608-0.248 1.208-0.664 1.829-0.697 0.708-0.038 0.745 0.875 1.175 1.3 1.362 1.342 2.942 1.689 4.705 1.105 1.716-0.568 2.437-1.928 2.573-3.642 0.046-0.579 0.007-1.164 0.007-1.793-3.151 2.198-6.003 2.23-8.709 0.149-2.808-2.159-3.906-5.795-2.742-9.076 1.168-3.29 4.215-5.443 7.531-5.322 1.237 0.046 1.947 0.337 3.813 1.566 0.039-0.036 0.115-0.078 0.111-0.108-0.146-0.984 0.342-1.15 1.222-1.124 2.162 0.064 2.163 0.021 2.163 2.2 0 4.072-0.004 8.144 0.003 12.215 0.001 0.963-0.096 1.908-0.325 2.844-0.751 3.063-2.695 4.837-5.782 5.391-0.189 0.034-0.435-0.068-0.545 0.195z"></path>
<path fill="#fc2e28" style="fill: var(--color6, #fc2e28)" d="M90.138 11.886c-2.307 0.022-4.28 2.013-4.324 4.153-0.012 0.575 0.257 0.402 0.534 0.287 2.037-0.844 4.068-1.702 6.11-2.532 0.424-0.172 0.48-0.347 0.199-0.698-0.691-0.864-1.63-1.156-2.52-1.21zM97.045 14.927c-0.294-0.112-0.518 0.085-0.757 0.183-3.066 1.261-6.124 2.542-9.198 3.786-0.596 0.241-0.699 0.441-0.299 0.994 1.627 2.245 4.928 2.362 6.853 0.153 0.456-0.523 0.758-0.598 1.263-0.157 0.29 0.254 0.644 0.434 0.968 0.649 1.109 0.739 1.109 0.739 0.214 1.696-2.322 2.483-5.911 3.222-9.068 1.868-3.046-1.307-4.904-4.437-4.681-7.888 0.223-3.454 2.289-6.171 5.394-7.093 3.616-1.074 7.103 0.624 8.746 4.254 0.181 0.402 0.262 0.851 0.566 1.195z"></path>
<path fill="#fc2e28" style="fill: var(--color6, #fc2e28)" d="M29.114 16.736c-0.012 2.744 1.905 4.844 4.44 4.864 2.552 0.020 4.528-2.052 4.544-4.765 0.015-2.74-1.897-4.834-4.446-4.866s-4.527 2.048-4.539 4.767zM33.598 8.816c4.539-0.001 8.038 3.498 8.009 8.006-0.029 4.472-3.524 7.948-7.996 7.952-4.502 0.003-8.048-3.552-8.008-8.029 0.040-4.502 3.496-7.929 7.994-7.929z"></path>
<path fill="#fdba03" style="fill: var(--color7, #fdba03)" d="M46.367 16.783c0.001 2.735 1.938 4.814 4.488 4.815 2.546 0.002 4.496-2.085 4.497-4.812 0.001-2.736-1.936-4.811-4.492-4.811-2.56-0.001-4.493 2.068-4.492 4.807zM50.841 8.816c4.545-0.005 8.060 3.508 8.025 8.019-0.034 4.47-3.566 7.96-8.036 7.942-4.473-0.018-7.995-3.547-7.98-7.998 0.015-4.495 3.491-7.958 7.991-7.963z"></path>
<path fill="#00ab46" style="fill: var(--color8, #00ab46)" d="M77.637 12.593c0-3.65 0.013-7.299-0.013-10.949-0.004-0.573 0.127-0.794 0.732-0.746 0.799 0.064 1.846-0.255 2.343 0.143 0.524 0.421 0.163 1.51 0.164 2.304 0.014 6.701-0.002 13.402 0.024 20.103 0.003 0.656-0.132 0.907-0.825 0.838-0.767-0.077-1.804 0.249-2.251-0.14-0.521-0.455-0.161-1.514-0.166-2.308-0.021-3.082-0.008-6.163-0.008-9.244z"></path>
<path fill="#fdfcfd" style="fill: var(--color9, #fdfcfd)" d="M63.726 16.423c0.043-1.576 0.784-3.197 2.679-4.063 1.502-0.686 2.984-0.539 4.283 0.533 1.808 1.491 2.256 4.403 1.050 6.549-1.382 2.457-4.536 2.917-6.566 0.956-1.002-0.969-1.44-2.17-1.446-3.975z"></path>
<path fill="#fdfbfb" style="fill: var(--color10, #fdfbfb)" d="M90.138 11.886c0.89 0.054 1.828 0.346 2.52 1.21 0.281 0.351 0.224 0.526-0.199 0.698-2.042 0.831-4.073 1.688-6.11 2.532-0.277 0.115-0.546 0.288-0.534-0.287 0.044-2.14 2.017-4.131 4.324-4.153z"></path>
<path fill="#fdfbfb" style="fill: var(--color10, #fdfbfb)" d="M29.114 16.736c0.012-2.72 1.991-4.799 4.539-4.767s4.461 2.126 4.446 4.866c-0.016 2.713-1.992 4.785-4.544 4.765-2.535-0.020-4.452-2.12-4.44-4.864z"></path>
<path fill="#fdfbfb" style="fill: var(--color10, #fdfbfb)" d="M46.367 16.783c-0.001-2.739 1.932-4.808 4.492-4.807 2.556 0 4.494 2.075 4.492 4.811-0.001 2.726-1.951 4.813-4.497 4.812-2.549-0.002-4.487-2.080-4.488-4.815z"></path>
</symbol>
<symbol id="icon-google-keyboard" viewBox="0 0 32 32">
<path fill="#000" style="fill: var(--color11, #000)" d="M30.117 23.483h-28.203c-0.488 0-0.885-0.395-0.885-0.885v-13.235c0-0.488 0.395-0.885 0.885-0.885h28.203c0.488 0 0.885 0.395 0.885 0.885v13.238c0 0.488-0.398 0.883-0.885 0.883z"></path>
<path fill="#424242" style="fill: var(--color12, #424242)" opacity="0.2" d="M30.117 9.23c0.075 0 0.135 0.060 0.135 0.135v13.235c0 0.075-0.060 0.135-0.135 0.135h-28.203c-0.075 0-0.135-0.060-0.135-0.135v-13.238c0-0.075 0.060-0.135 0.135-0.135h28.203zM30.117 8.48h-28.203c-0.488 0-0.885 0.395-0.885 0.885v13.235c0 0.488 0.395 0.885 0.885 0.885h28.203c0.488 0 0.885-0.395 0.885-0.885v-13.238c0-0.488-0.398-0.883-0.885-0.883v0z"></path>
<path fill="#f5f5f5" style="fill: var(--color13, #f5f5f5)" d="M4.588 12.498h-1.173c-0.228 0-0.413-0.185-0.413-0.412v-1.175c0-0.227 0.185-0.412 0.413-0.412h1.173c0.228 0 0.412 0.185 0.412 0.412v1.175c0 0.227-0.185 0.412-0.412 0.412z"></path>
<path fill="#f5f5f5" style="fill: var(--color13, #f5f5f5)" d="M7.447 12.498h-1.173c-0.228 0-0.412-0.185-0.412-0.412v-1.175c0-0.227 0.185-0.412 0.412-0.412h1.173c0.228 0 0.412 0.185 0.412 0.412v1.175c0 0.227-0.185 0.412-0.412 0.412z"></path>
<path fill="#f5f5f5" style="fill: var(--color13, #f5f5f5)" d="M10.307 12.498h-1.172c-0.227 0-0.412-0.185-0.412-0.412v-1.175c0-0.227 0.185-0.412 0.412-0.412h1.172c0.227 0 0.412 0.185 0.412 0.412v1.175c0 0.227-0.185 0.412-0.412 0.412z"></path>
<path fill="#f5f5f5" style="fill: var(--color13, #f5f5f5)" d="M13.168 12.498h-1.172c-0.227 0-0.412-0.185-0.412-0.412v-1.175c0-0.227 0.185-0.412 0.412-0.412h1.172c0.227 0 0.412 0.185 0.412 0.412v1.175c0 0.227-0.185 0.412-0.412 0.412z"></path>
<path fill="#f5f5f5" style="fill: var(--color13, #f5f5f5)" d="M16.027 12.498h-1.172c-0.227 0-0.412-0.185-0.412-0.412v-1.175c0-0.227 0.185-0.412 0.412-0.412h1.172c0.227 0 0.413 0.185 0.413 0.412v1.175c0 0.227-0.185 0.412-0.413 0.412z"></path>
<path fill="#f5f5f5" style="fill: var(--color13, #f5f5f5)" d="M18.887 12.498h-1.172c-0.227 0-0.413-0.185-0.413-0.412v-1.175c0-0.227 0.185-0.412 0.413-0.412h1.172c0.227 0 0.413 0.185 0.413 0.412v1.175c0 0.227-0.185 0.412-0.413 0.412z"></path>
<path fill="#f5f5f5" style="fill: var(--color13, #f5f5f5)" d="M21.747 12.498h-1.172c-0.227 0-0.413-0.185-0.413-0.412v-1.175c0-0.227 0.185-0.412 0.413-0.412h1.172c0.227 0 0.413 0.185 0.413 0.412v1.175c0 0.227-0.185 0.412-0.413 0.412z"></path>
<path fill="#f5f5f5" style="fill: var(--color13, #f5f5f5)" d="M24.608 12.498h-1.172c-0.227 0-0.413-0.185-0.413-0.412v-1.175c0-0.227 0.185-0.412 0.413-0.412h1.172c0.227 0 0.413 0.185 0.413 0.412v1.175c0 0.227-0.185 0.412-0.413 0.412z"></path>
<path fill="#f5f5f5" style="fill: var(--color13, #f5f5f5)" d="M28.6 12.498h-2.175c-0.227 0-0.413-0.185-0.413-0.412v-1.175c0-0.227 0.185-0.412 0.413-0.412h2.175c0.227 0 0.413 0.185 0.413 0.412v1.175c0 0.227-0.185 0.412-0.413 0.412z"></path>
<path fill="#f5f5f5" style="fill: var(--color13, #f5f5f5)" d="M27.425 15.495h1.172c0.227 0 0.413-0.185 0.413-0.412v-1.175c0-0.227-0.185-0.412-0.413-0.412h-1.172c-0.227 0-0.413 0.185-0.413 0.412v1.175c0 0.227 0.185 0.412 0.413 0.412z"></path>
<path fill="#f5f5f5" style="fill: var(--color13, #f5f5f5)" d="M24.565 15.495h1.172c0.227 0 0.413-0.185 0.413-0.412v-1.175c0-0.227-0.185-0.412-0.413-0.412h-1.172c-0.227 0-0.413 0.185-0.413 0.412v1.175c0 0.227 0.185 0.412 0.413 0.412z"></path>
<path fill="#f5f5f5" style="fill: var(--color13, #f5f5f5)" d="M21.705 15.495h1.172c0.227 0 0.413-0.185 0.413-0.412v-1.175c0-0.227-0.185-0.412-0.413-0.412h-1.172c-0.227 0-0.413 0.185-0.413 0.412v1.175c0 0.227 0.185 0.412 0.413 0.412z"></path>
<path fill="#f5f5f5" style="fill: var(--color13, #f5f5f5)" d="M18.845 15.495h1.172c0.227 0 0.413-0.185 0.413-0.412v-1.175c0-0.227-0.185-0.412-0.413-0.412h-1.172c-0.227 0-0.413 0.185-0.413 0.412v1.175c0 0.227 0.185 0.412 0.413 0.412z"></path>
<path fill="#f5f5f5" style="fill: var(--color13, #f5f5f5)" d="M15.985 15.495h1.172c0.227 0 0.413-0.185 0.413-0.412v-1.175c0-0.227-0.185-0.412-0.413-0.412h-1.172c-0.227 0-0.412 0.185-0.412 0.412v1.175c0 0.227 0.185 0.412 0.412 0.412z"></path>
<path fill="#f5f5f5" style="fill: var(--color13, #f5f5f5)" d="M13.125 15.495h1.172c0.227 0 0.412-0.185 0.412-0.412v-1.175c0-0.227-0.185-0.412-0.412-0.412h-1.172c-0.227 0-0.412 0.185-0.412 0.412v1.175c0 0.227 0.185 0.412 0.412 0.412z"></path>
<path fill="#f5f5f5" style="fill: var(--color13, #f5f5f5)" d="M10.265 15.495h1.172c0.227 0 0.412-0.185 0.412-0.412v-1.175c0-0.227-0.185-0.412-0.412-0.412h-1.172c-0.227 0-0.412 0.185-0.412 0.412v1.175c0 0.227 0.185 0.412 0.412 0.412z"></path>
<path fill="#f5f5f5" style="fill: var(--color13, #f5f5f5)" d="M7.405 15.495h1.173c0.227 0 0.412-0.185 0.412-0.412v-1.175c0-0.227-0.185-0.412-0.412-0.412h-1.173c-0.228 0-0.412 0.185-0.412 0.412v1.175c0 0.227 0.185 0.412 0.412 0.412z"></path>
<path fill="#f5f5f5" style="fill: var(--color13, #f5f5f5)" d="M3.413 15.495h2.175c0.228 0 0.412-0.185 0.412-0.412v-1.175c0-0.227-0.185-0.412-0.412-0.412h-2.175c-0.228 0-0.413 0.185-0.413 0.412v1.175c0 0.227 0.185 0.412 0.413 0.412z"></path>
<path fill="#f5f5f5" style="fill: var(--color13, #f5f5f5)" d="M20.43 18.492h1.185c0.225 0 0.407-0.183 0.407-0.407v-1.185c0-0.225-0.183-0.407-0.407-0.407h-1.185c-0.225 0-0.407 0.183-0.407 0.407v1.185c0 0.225 0.183 0.407 0.407 0.407z"></path>
<path fill="#f5f5f5" style="fill: var(--color13, #f5f5f5)" d="M17.427 18.492h1.185c0.225 0 0.407-0.183 0.407-0.407v-1.185c0-0.225-0.183-0.407-0.407-0.407h-1.185c-0.225 0-0.407 0.183-0.407 0.407v1.185c0 0.225 0.183 0.407 0.407 0.407z"></path>
<path fill="#f5f5f5" style="fill: var(--color13, #f5f5f5)" d="M14.422 18.492h1.185c0.225 0 0.408-0.183 0.408-0.407v-1.185c0-0.225-0.182-0.407-0.408-0.407h-1.185c-0.225 0-0.408 0.183-0.408 0.407v1.185c0 0.225 0.182 0.407 0.408 0.407z"></path>
<path fill="#f5f5f5" style="fill: var(--color13, #f5f5f5)" d="M11.42 18.492h1.185c0.225 0 0.408-0.183 0.408-0.407v-1.185c0-0.225-0.182-0.407-0.408-0.407h-1.185c-0.225 0-0.408 0.183-0.408 0.407v1.185c0 0.225 0.182 0.407 0.408 0.407z"></path>
<path fill="#f5f5f5" style="fill: var(--color13, #f5f5f5)" d="M8.415 18.492h1.185c0.225 0 0.408-0.183 0.408-0.407v-1.185c0-0.225-0.182-0.407-0.408-0.407h-1.185c-0.225 0-0.408 0.183-0.408 0.407v1.185c0 0.225 0.182 0.407 0.408 0.407z"></path>
<path fill="#f5f5f5" style="fill: var(--color13, #f5f5f5)" d="M3.413 18.492h3.163c0.228 0 0.412-0.185 0.412-0.413v-1.175c0-0.227-0.185-0.413-0.412-0.413h-3.163c-0.228 0-0.413 0.185-0.413 0.413v1.175c0 0.23 0.185 0.413 0.413 0.413z"></path>
<path fill="#f5f5f5" style="fill: var(--color13, #f5f5f5)" d="M23.433 18.535h5.16c0.227 0 0.413-0.185 0.413-0.413v-1.258c0-0.227-0.185-0.413-0.413-0.413h-5.16c-0.227 0-0.413 0.185-0.413 0.413v1.258c0 0.227 0.185 0.413 0.413 0.413z"></path>
<path fill="#f5f5f5" style="fill: var(--color13, #f5f5f5)" d="M27.425 21.492h1.175c0.227 0 0.413-0.185 0.413-0.413v-1.175c0-0.227-0.185-0.413-0.413-0.413h-1.175c-0.227 0-0.413 0.185-0.413 0.413v1.175c0 0.227 0.185 0.413 0.413 0.413z"></path>
<path fill="#f5f5f5" style="fill: var(--color13, #f5f5f5)" d="M24.315 21.492h1.175c0.227 0 0.413-0.185 0.413-0.413v-1.175c0-0.227-0.185-0.413-0.413-0.413h-1.175c-0.227 0-0.413 0.185-0.413 0.413v1.175c0 0.227 0.185 0.413 0.413 0.413z"></path>
<path fill="#f5f5f5" style="fill: var(--color13, #f5f5f5)" d="M9.633 21.492h12.748c0.227 0 0.413-0.185 0.413-0.413v-1.175c0-0.227-0.185-0.413-0.413-0.413h-12.748c-0.227 0-0.412 0.185-0.412 0.413v1.175c0 0.227 0.185 0.413 0.412 0.413z"></path>
<path fill="#f5f5f5" style="fill: var(--color13, #f5f5f5)" d="M6.522 21.492h1.175c0.228 0 0.412-0.185 0.412-0.413v-1.175c0-0.227-0.185-0.413-0.412-0.413h-1.175c-0.228 0-0.412 0.185-0.412 0.413v1.175c0 0.227 0.185 0.413 0.412 0.413z"></path>
<path fill="#f5f5f5" style="fill: var(--color13, #f5f5f5)" d="M3.413 21.492h1.175c0.228 0 0.412-0.185 0.412-0.413v-1.175c0-0.227-0.185-0.413-0.412-0.413h-1.175c-0.228 0-0.413 0.185-0.413 0.413v1.175c0 0.227 0.185 0.413 0.413 0.413z"></path>
</symbol>
<symbol id="icon-google-mic" viewBox="0 0 32 32">
<path fill="#1e88e5" style="fill: var(--color14, #1e88e5)" d="M16.001 19.003c1.685 0 3.029-1.365 3.029-3.029v-7.083c0-1.685-1.365-3.029-3.029-3.029-1.685 0-3.029 1.365-3.029 3.029v7.083c0 1.664 1.365 3.029 3.029 3.029z"></path>
<path fill="#4caf50" style="fill: var(--color15, #4caf50)" d="M14.993 22.965v0 3.179h2.027v-3.157c-0.32 0.043-0.661 0.043-1.003 0.043-0.363 0.021-0.683 0-1.024-0.064z"></path>
<path fill="#fbc02d" style="fill: var(--color16, #fbc02d)" d="M12.412 19.586c-0.896-0.917-1.472-2.027-1.472-3.541h-2.027c0 2.027 0.789 3.691 2.069 4.971l0.021-0.021c0 0 0 0-0.021-0.021l1.429-1.387z"></path>
<path fill="#e53935" style="fill: var(--color17, #e53935)" d="M21.058 16.041c0 2.539-2.24 5.035-5.056 5.035-1.408 0-2.667-0.576-3.584-1.493l-1.429 1.429c0 0 0 0 0.021 0.021 1.045 1.045 2.432 1.749 3.989 1.984 0.341 0.043 0.683 0.085 1.024 0.085s0.683 0 1.003-0.043c3.435-0.491 6.059-3.435 6.059-6.976h-2.027z"></path>
</symbol>
<symbol id="icon-search" viewBox="0 0 32 32">
<path stroke-linejoin="round" stroke-linecap="round" stroke-miterlimit="4" stroke-width="2.6667" d="M14.667 25.333c5.891 0 10.667-4.776 10.667-10.667s-4.776-10.667-10.667-10.667c-5.891 0-10.667 4.776-10.667 10.667s4.776 10.667 10.667 10.667z"></path>
<path stroke-linejoin="round" stroke-linecap="round" stroke-miterlimit="4" stroke-width="2.6667" d="M28 28l-5.8-5.8"></path>
</symbol>
<symbol id="icon-dots-menu" viewBox="0 0 32 32">
<path d="M3.84 0.286c-2.063 0-3.742 1.679-3.742 3.742s1.678 3.742 3.742 3.742 3.742-1.679 3.742-3.742-1.679-3.742-3.742-3.742z"></path>
<path d="M15.951 0.286c-2.063 0-3.742 1.679-3.742 3.742s1.679 3.742 3.742 3.742c2.063 0 3.742-1.679 3.742-3.742s-1.678-3.742-3.742-3.742z"></path>
<path d="M28.258 7.77c2.063 0 3.742-1.679 3.742-3.742s-1.678-3.742-3.742-3.742-3.742 1.679-3.742 3.742 1.679 3.742 3.742 3.742z"></path>
<path d="M3.743 19.761c2.063 0 3.742-1.678 3.742-3.742s-1.679-3.742-3.742-3.742-3.743 1.679-3.743 3.742c0 2.064 1.679 3.742 3.743 3.742z"></path>
<path d="M15.853 19.761c2.063 0 3.742-1.678 3.742-3.742s-1.678-3.742-3.742-3.742c-2.064 0-3.742 1.679-3.742 3.742s1.679 3.742 3.742 3.742z"></path>
<path d="M28.161 19.761c2.064 0 3.742-1.678 3.742-3.742s-1.678-3.742-3.742-3.742-3.743 1.679-3.743 3.742c0 2.064 1.679 3.742 3.743 3.742z"></path>
<path d="M3.828 24.23c-2.063 0-3.743 1.678-3.743 3.742s1.679 3.742 3.743 3.742 3.742-1.678 3.742-3.742-1.679-3.742-3.742-3.742z"></path>
<path d="M15.94 24.23c-2.063 0-3.743 1.678-3.743 3.742s1.679 3.742 3.743 3.742c2.063 0 3.742-1.678 3.742-3.742s-1.679-3.742-3.742-3.742z"></path>
<path d="M28.246 24.23c-2.063 0-3.742 1.678-3.742 3.742s1.679 3.742 3.742 3.742c2.064 0 3.742-1.678 3.742-3.742s-1.679-3.742-3.742-3.742z"></path>
</symbol>
</defs>
</svg>
